<?xml version="1.0" encoding="UTF-8" standalone="no"?>
<!DOCTYPE svg PUBLIC "-//W3C//DTD SVG 1.1//EN"
 "http://www.w3.org/Graphics/SVG/1.1/DTD/svg11.dtd">
<!-- Generated by graphviz version 2.43.0 (0)
 -->
<!-- Title: g Pages: 1 -->
<svg width="444pt" height="116pt"
 viewBox="0.00 0.00 444.28 116.00" xmlns="http://www.w3.org/2000/svg" xmlns:xlink="http://www.w3.org/1999/xlink">
<g id="graph0" class="graph" transform="scale(1 1) rotate(0) translate(4 112)">
<title>g</title>
<polygon fill="white" stroke="transparent" points="-4,4 -4,-112 440.28,-112 440.28,4 -4,4"/>
<!-- nPLAN -->
<g id="node1" class="node">
<title>nPLAN</title>
<ellipse fill="none" stroke="black" cx="217.64" cy="-90" rx="42.79" ry="18"/>
<text text-anchor="middle" x="217.64" y="-86.3" font-family="Times,serif" font-size="14.00">nPLAN</text>
</g>
<!-- n136292675583968 -->
<g id="node2" class="node">
<title>n136292675583968</title>
<ellipse fill="none" stroke="black" cx="104.64" cy="-18" rx="104.78" ry="18"/>
<text text-anchor="middle" x="104.64" y="-14.3" font-family="Times,serif" font-size="14.00">n136292675583968</text>
</g>
<!-- nPLAN&#45;&gt;n136292675583968 -->
<g id="edge1" class="edge">
<title>nPLAN&#45;&gt;n136292675583968</title>
<path fill="none" stroke="black" d="M194.5,-74.67C178.89,-64.99 157.97,-52.04 140.25,-41.06"/>
<polygon fill="black" stroke="black" points="141.66,-37.82 131.32,-35.53 137.98,-43.77 141.66,-37.82"/>
</g>
<!-- n136292675575760 -->
<g id="node3" class="node">
<title>n136292675575760</title>
<ellipse fill="none" stroke="black" cx="331.64" cy="-18" rx="104.78" ry="18"/>
<text text-anchor="middle" x="331.64" y="-14.3" font-family="Times,serif" font-size="14.00">n136292675575760</text>
</g>
<!-- nPLAN&#45;&gt;n136292675575760 -->
<g id="edge2" class="edge">
<title>nPLAN&#45;&gt;n136292675575760</title>
<path fill="none" stroke="black" d="M240.99,-74.67C256.74,-64.99 277.84,-52.04 295.72,-41.06"/>
<polygon fill="black" stroke="black" points="298.04,-43.74 304.73,-35.53 294.37,-37.78 298.04,-43.74"/>
</g>
</g>
</svg>
