<?xml version="1.0" encoding="UTF-8" standalone="no"?>
<!DOCTYPE svg PUBLIC "-//W3C//DTD SVG 1.1//EN"
 "http://www.w3.org/Graphics/SVG/1.1/DTD/svg11.dtd">
<!-- Generated by graphviz version 2.43.0 (0)
 -->
<!-- Title: g Pages: 1 -->
<svg width="2714pt" height="188pt"
 viewBox="0.00 0.00 2714.28 188.00" xmlns="http://www.w3.org/2000/svg" xmlns:xlink="http://www.w3.org/1999/xlink">
<g id="graph0" class="graph" transform="scale(1 1) rotate(0) translate(4 184)">
<title>g</title>
<polygon fill="white" stroke="transparent" points="-4,4 -4,-184 2710.28,-184 2710.28,4 -4,4"/>
<!-- nPLAN -->
<g id="node1" class="node">
<title>nPLAN</title>
<ellipse fill="none" stroke="black" cx="1352.64" cy="-162" rx="42.79" ry="18"/>
<text text-anchor="middle" x="1352.64" y="-158.3" font-family="Times,serif" font-size="14.00">nPLAN</text>
</g>
<!-- n127549015653552 -->
<g id="node2" class="node">
<title>n127549015653552</title>
<ellipse fill="none" stroke="black" cx="1352.64" cy="-90" rx="104.78" ry="18"/>
<text text-anchor="middle" x="1352.64" y="-86.3" font-family="Times,serif" font-size="14.00">n127549015653552</text>
</g>
<!-- nPLAN&#45;&gt;n127549015653552 -->
<g id="edge1" class="edge">
<title>nPLAN&#45;&gt;n127549015653552</title>
<path fill="none" stroke="black" d="M1352.64,-143.7C1352.64,-135.98 1352.64,-126.71 1352.64,-118.11"/>
<polygon fill="black" stroke="black" points="1356.14,-118.1 1352.64,-108.1 1349.14,-118.1 1356.14,-118.1"/>
</g>
<!-- n127549015654128 -->
<g id="node3" class="node">
<title>n127549015654128</title>
<ellipse fill="none" stroke="black" cx="104.64" cy="-18" rx="104.78" ry="18"/>
<text text-anchor="middle" x="104.64" y="-14.3" font-family="Times,serif" font-size="14.00">n127549015654128</text>
</g>
<!-- n127549015653552&#45;&gt;n127549015654128 -->
<g id="edge2" class="edge">
<title>n127549015653552&#45;&gt;n127549015654128</title>
<path fill="none" stroke="black" d="M1248.71,-87.71C1048.65,-84.44 596.29,-73.22 217.64,-36 207.79,-35.03 197.49,-33.8 187.29,-32.43"/>
<polygon fill="black" stroke="black" points="187.53,-28.93 177.14,-31.03 186.57,-35.87 187.53,-28.93"/>
</g>
<!-- n127549015654272 -->
<g id="node4" class="node">
<title>n127549015654272</title>
<ellipse fill="none" stroke="black" cx="331.64" cy="-18" rx="104.78" ry="18"/>
<text text-anchor="middle" x="331.64" y="-14.3" font-family="Times,serif" font-size="14.00">n127549015654272</text>
</g>
<!-- n127549015653552&#45;&gt;n127549015654272 -->
<g id="edge3" class="edge">
<title>n127549015653552&#45;&gt;n127549015654272</title>
<path fill="none" stroke="black" d="M1250.27,-86.06C1081.86,-80.55 735.98,-66.35 444.64,-36 434.87,-34.98 424.66,-33.72 414.53,-32.35"/>
<polygon fill="black" stroke="black" points="414.85,-28.86 404.46,-30.95 413.88,-35.8 414.85,-28.86"/>
</g>
<!-- n127549015654080 -->
<g id="node5" class="node">
<title>n127549015654080</title>
<ellipse fill="none" stroke="black" cx="558.64" cy="-18" rx="104.78" ry="18"/>
<text text-anchor="middle" x="558.64" y="-14.3" font-family="Times,serif" font-size="14.00">n127549015654080</text>
</g>
<!-- n127549015653552&#45;&gt;n127549015654080 -->
<g id="edge4" class="edge">
<title>n127549015653552&#45;&gt;n127549015654080</title>
<path fill="none" stroke="black" d="M1254.6,-83.58C1122.09,-75.76 878.57,-59.59 671.64,-36 662.03,-34.9 651.98,-33.61 642.01,-32.23"/>
<polygon fill="black" stroke="black" points="642.48,-28.76 632.09,-30.83 641.5,-35.69 642.48,-28.76"/>
</g>
<!-- n127549015653696 -->
<g id="node6" class="node">
<title>n127549015653696</title>
<ellipse fill="none" stroke="black" cx="785.64" cy="-18" rx="104.78" ry="18"/>
<text text-anchor="middle" x="785.64" y="-14.3" font-family="Times,serif" font-size="14.00">n127549015653696</text>
</g>
<!-- n127549015653552&#45;&gt;n127549015653696 -->
<g id="edge5" class="edge">
<title>n127549015653552&#45;&gt;n127549015653696</title>
<path fill="none" stroke="black" d="M1266.34,-79.79C1174.94,-69.82 1026.46,-53.07 898.64,-36 889.62,-34.79 880.19,-33.47 870.81,-32.12"/>
<polygon fill="black" stroke="black" points="871.06,-28.62 860.66,-30.64 870.05,-35.55 871.06,-28.62"/>
</g>
<!-- n127549015653744 -->
<g id="node7" class="node">
<title>n127549015653744</title>
<ellipse fill="none" stroke="black" cx="1012.64" cy="-18" rx="104.78" ry="18"/>
<text text-anchor="middle" x="1012.64" y="-14.3" font-family="Times,serif" font-size="14.00">n127549015653744</text>
</g>
<!-- n127549015653552&#45;&gt;n127549015653744 -->
<g id="edge6" class="edge">
<title>n127549015653552&#45;&gt;n127549015653744</title>
<path fill="none" stroke="black" d="M1288.29,-75.75C1230.94,-63.94 1147,-46.66 1086.84,-34.28"/>
<polygon fill="black" stroke="black" points="1087.52,-30.84 1077.02,-32.25 1086.11,-37.7 1087.52,-30.84"/>
</g>
<!-- n127549015653792 -->
<g id="node8" class="node">
<title>n127549015653792</title>
<ellipse fill="none" stroke="black" cx="1239.64" cy="-18" rx="104.78" ry="18"/>
<text text-anchor="middle" x="1239.64" y="-14.3" font-family="Times,serif" font-size="14.00">n127549015653792</text>
</g>
<!-- n127549015653552&#45;&gt;n127549015653792 -->
<g id="edge7" class="edge">
<title>n127549015653552&#45;&gt;n127549015653792</title>
<path fill="none" stroke="black" d="M1325.86,-72.41C1310.66,-63 1291.45,-51.1 1275.03,-40.92"/>
<polygon fill="black" stroke="black" points="1276.57,-37.76 1266.23,-35.47 1272.89,-43.71 1276.57,-37.76"/>
</g>
<!-- n127549015653504 -->
<g id="node9" class="node">
<title>n127549015653504</title>
<ellipse fill="none" stroke="black" cx="1466.64" cy="-18" rx="104.78" ry="18"/>
<text text-anchor="middle" x="1466.64" y="-14.3" font-family="Times,serif" font-size="14.00">n127549015653504</text>
</g>
<!-- n127549015653552&#45;&gt;n127549015653504 -->
<g id="edge8" class="edge">
<title>n127549015653552&#45;&gt;n127549015653504</title>
<path fill="none" stroke="black" d="M1379.37,-72.59C1394.69,-63.18 1414.13,-51.24 1430.77,-41.02"/>
<polygon fill="black" stroke="black" points="1432.99,-43.77 1439.69,-35.55 1429.33,-37.8 1432.99,-43.77"/>
</g>
<!-- n127549015654176 -->
<g id="node10" class="node">
<title>n127549015654176</title>
<ellipse fill="none" stroke="black" cx="1693.64" cy="-18" rx="104.78" ry="18"/>
<text text-anchor="middle" x="1693.64" y="-14.3" font-family="Times,serif" font-size="14.00">n127549015654176</text>
</g>
<!-- n127549015653552&#45;&gt;n127549015654176 -->
<g id="edge9" class="edge">
<title>n127549015653552&#45;&gt;n127549015654176</title>
<path fill="none" stroke="black" d="M1417.18,-75.75C1474.7,-63.94 1558.89,-46.66 1619.23,-34.28"/>
<polygon fill="black" stroke="black" points="1619.98,-37.69 1629.07,-32.25 1618.58,-30.84 1619.98,-37.69"/>
</g>
<!-- n127549015653360 -->
<g id="node11" class="node">
<title>n127549015653360</title>
<ellipse fill="none" stroke="black" cx="1920.64" cy="-18" rx="104.78" ry="18"/>
<text text-anchor="middle" x="1920.64" y="-14.3" font-family="Times,serif" font-size="14.00">n127549015653360</text>
</g>
<!-- n127549015653552&#45;&gt;n127549015653360 -->
<g id="edge10" class="edge">
<title>n127549015653552&#45;&gt;n127549015653360</title>
<path fill="none" stroke="black" d="M1439.13,-79.79C1530.74,-69.84 1679.54,-53.09 1807.64,-36 1816.67,-34.8 1826.09,-33.48 1835.47,-32.12"/>
<polygon fill="black" stroke="black" points="1836.23,-35.55 1845.62,-30.64 1835.22,-28.62 1836.23,-35.55"/>
</g>
<!-- n127549015654224 -->
<g id="node12" class="node">
<title>n127549015654224</title>
<ellipse fill="none" stroke="black" cx="2147.64" cy="-18" rx="104.78" ry="18"/>
<text text-anchor="middle" x="2147.64" y="-14.3" font-family="Times,serif" font-size="14.00">n127549015654224</text>
</g>
<!-- n127549015653552&#45;&gt;n127549015654224 -->
<g id="edge11" class="edge">
<title>n127549015653552&#45;&gt;n127549015654224</title>
<path fill="none" stroke="black" d="M1450.54,-83.61C1583.19,-75.79 1827.26,-59.63 2034.64,-36 2044.25,-34.91 2054.3,-33.61 2064.27,-32.23"/>
<polygon fill="black" stroke="black" points="2064.78,-35.7 2074.19,-30.83 2063.8,-28.76 2064.78,-35.7"/>
</g>
<!-- n127549015653264 -->
<g id="node13" class="node">
<title>n127549015653264</title>
<ellipse fill="none" stroke="black" cx="2374.64" cy="-18" rx="104.78" ry="18"/>
<text text-anchor="middle" x="2374.64" y="-14.3" font-family="Times,serif" font-size="14.00">n127549015653264</text>
</g>
<!-- n127549015653552&#45;&gt;n127549015653264 -->
<g id="edge12" class="edge">
<title>n127549015653552&#45;&gt;n127549015653264</title>
<path fill="none" stroke="black" d="M1454.79,-86.08C1623.25,-80.58 1969.78,-66.4 2261.64,-36 2271.41,-34.98 2281.62,-33.72 2291.75,-32.35"/>
<polygon fill="black" stroke="black" points="2292.4,-35.8 2301.82,-30.95 2291.43,-28.86 2292.4,-35.8"/>
</g>
<!-- n127549015653888 -->
<g id="node14" class="node">
<title>n127549015653888</title>
<ellipse fill="none" stroke="black" cx="2601.64" cy="-18" rx="104.78" ry="18"/>
<text text-anchor="middle" x="2601.64" y="-14.3" font-family="Times,serif" font-size="14.00">n127549015653888</text>
</g>
<!-- n127549015653552&#45;&gt;n127549015653888 -->
<g id="edge13" class="edge">
<title>n127549015653552&#45;&gt;n127549015653888</title>
<path fill="none" stroke="black" d="M1456.66,-87.72C1656.9,-84.45 2109.66,-73.25 2488.64,-36 2498.49,-35.03 2508.79,-33.8 2518.99,-32.43"/>
<polygon fill="black" stroke="black" points="2519.71,-35.87 2529.14,-31.03 2518.75,-28.93 2519.71,-35.87"/>
</g>
</g>
</svg>
