<?xml version="1.0" encoding="UTF-8" standalone="no"?>
<!DOCTYPE svg PUBLIC "-//W3C//DTD SVG 1.1//EN"
 "http://www.w3.org/Graphics/SVG/1.1/DTD/svg11.dtd">
<!-- Generated by graphviz version 2.43.0 (0)
 -->
<!-- Title: g Pages: 1 -->
<svg width="1806pt" height="188pt"
 viewBox="0.00 0.00 1806.28 188.00" xmlns="http://www.w3.org/2000/svg" xmlns:xlink="http://www.w3.org/1999/xlink">
<g id="graph0" class="graph" transform="scale(1 1) rotate(0) translate(4 184)">
<title>g</title>
<polygon fill="white" stroke="transparent" points="-4,4 -4,-184 1802.28,-184 1802.28,4 -4,4"/>
<!-- nPLAN -->
<g id="node1" class="node">
<title>nPLAN</title>
<ellipse fill="none" stroke="black" cx="898.64" cy="-162" rx="42.79" ry="18"/>
<text text-anchor="middle" x="898.64" y="-158.3" font-family="Times,serif" font-size="14.00">nPLAN</text>
</g>
<!-- n123279605284688 -->
<g id="node2" class="node">
<title>n123279605284688</title>
<ellipse fill="none" stroke="black" cx="898.64" cy="-90" rx="104.78" ry="18"/>
<text text-anchor="middle" x="898.64" y="-86.3" font-family="Times,serif" font-size="14.00">n123279605284688</text>
</g>
<!-- nPLAN&#45;&gt;n123279605284688 -->
<g id="edge1" class="edge">
<title>nPLAN&#45;&gt;n123279605284688</title>
<path fill="none" stroke="black" d="M898.64,-143.7C898.64,-135.98 898.64,-126.71 898.64,-118.11"/>
<polygon fill="black" stroke="black" points="902.14,-118.1 898.64,-108.1 895.14,-118.1 902.14,-118.1"/>
</g>
<!-- n123279605284640 -->
<g id="node3" class="node">
<title>n123279605284640</title>
<ellipse fill="none" stroke="black" cx="104.64" cy="-18" rx="104.78" ry="18"/>
<text text-anchor="middle" x="104.64" y="-14.3" font-family="Times,serif" font-size="14.00">n123279605284640</text>
</g>
<!-- n123279605284688&#45;&gt;n123279605284640 -->
<g id="edge2" class="edge">
<title>n123279605284688&#45;&gt;n123279605284640</title>
<path fill="none" stroke="black" d="M800.6,-83.58C668.09,-75.76 424.57,-59.59 217.64,-36 208.03,-34.9 197.98,-33.61 188.01,-32.23"/>
<polygon fill="black" stroke="black" points="188.48,-28.76 178.09,-30.83 187.5,-35.69 188.48,-28.76"/>
</g>
<!-- n123279605284256 -->
<g id="node4" class="node">
<title>n123279605284256</title>
<ellipse fill="none" stroke="black" cx="331.64" cy="-18" rx="104.78" ry="18"/>
<text text-anchor="middle" x="331.64" y="-14.3" font-family="Times,serif" font-size="14.00">n123279605284256</text>
</g>
<!-- n123279605284688&#45;&gt;n123279605284256 -->
<g id="edge3" class="edge">
<title>n123279605284688&#45;&gt;n123279605284256</title>
<path fill="none" stroke="black" d="M812.34,-79.79C720.94,-69.82 572.46,-53.07 444.64,-36 435.62,-34.79 426.19,-33.47 416.81,-32.12"/>
<polygon fill="black" stroke="black" points="417.06,-28.62 406.66,-30.64 416.05,-35.55 417.06,-28.62"/>
</g>
<!-- n123279605284352 -->
<g id="node5" class="node">
<title>n123279605284352</title>
<ellipse fill="none" stroke="black" cx="558.64" cy="-18" rx="104.78" ry="18"/>
<text text-anchor="middle" x="558.64" y="-14.3" font-family="Times,serif" font-size="14.00">n123279605284352</text>
</g>
<!-- n123279605284688&#45;&gt;n123279605284352 -->
<g id="edge4" class="edge">
<title>n123279605284688&#45;&gt;n123279605284352</title>
<path fill="none" stroke="black" d="M834.29,-75.75C776.94,-63.94 693,-46.66 632.84,-34.28"/>
<polygon fill="black" stroke="black" points="633.52,-30.84 623.02,-32.25 632.11,-37.7 633.52,-30.84"/>
</g>
<!-- n123279605284016 -->
<g id="node6" class="node">
<title>n123279605284016</title>
<ellipse fill="none" stroke="black" cx="785.64" cy="-18" rx="104.78" ry="18"/>
<text text-anchor="middle" x="785.64" y="-14.3" font-family="Times,serif" font-size="14.00">n123279605284016</text>
</g>
<!-- n123279605284688&#45;&gt;n123279605284016 -->
<g id="edge5" class="edge">
<title>n123279605284688&#45;&gt;n123279605284016</title>
<path fill="none" stroke="black" d="M871.86,-72.41C856.66,-63 837.45,-51.1 821.03,-40.92"/>
<polygon fill="black" stroke="black" points="822.57,-37.76 812.23,-35.47 818.89,-43.71 822.57,-37.76"/>
</g>
<!-- n123279605283968 -->
<g id="node7" class="node">
<title>n123279605283968</title>
<ellipse fill="none" stroke="black" cx="1012.64" cy="-18" rx="104.78" ry="18"/>
<text text-anchor="middle" x="1012.64" y="-14.3" font-family="Times,serif" font-size="14.00">n123279605283968</text>
</g>
<!-- n123279605284688&#45;&gt;n123279605283968 -->
<g id="edge6" class="edge">
<title>n123279605284688&#45;&gt;n123279605283968</title>
<path fill="none" stroke="black" d="M925.37,-72.59C940.69,-63.18 960.13,-51.24 976.77,-41.02"/>
<polygon fill="black" stroke="black" points="978.99,-43.77 985.69,-35.55 975.33,-37.8 978.99,-43.77"/>
</g>
<!-- n123279605284208 -->
<g id="node8" class="node">
<title>n123279605284208</title>
<ellipse fill="none" stroke="black" cx="1239.64" cy="-18" rx="104.78" ry="18"/>
<text text-anchor="middle" x="1239.64" y="-14.3" font-family="Times,serif" font-size="14.00">n123279605284208</text>
</g>
<!-- n123279605284688&#45;&gt;n123279605284208 -->
<g id="edge7" class="edge">
<title>n123279605284688&#45;&gt;n123279605284208</title>
<path fill="none" stroke="black" d="M963.18,-75.75C1020.7,-63.94 1104.89,-46.66 1165.23,-34.28"/>
<polygon fill="black" stroke="black" points="1165.98,-37.69 1175.07,-32.25 1164.58,-30.84 1165.98,-37.69"/>
</g>
<!-- n123279605283920 -->
<g id="node9" class="node">
<title>n123279605283920</title>
<ellipse fill="none" stroke="black" cx="1466.64" cy="-18" rx="104.78" ry="18"/>
<text text-anchor="middle" x="1466.64" y="-14.3" font-family="Times,serif" font-size="14.00">n123279605283920</text>
</g>
<!-- n123279605284688&#45;&gt;n123279605283920 -->
<g id="edge8" class="edge">
<title>n123279605284688&#45;&gt;n123279605283920</title>
<path fill="none" stroke="black" d="M985.13,-79.79C1076.74,-69.84 1225.54,-53.09 1353.64,-36 1362.67,-34.8 1372.09,-33.48 1381.47,-32.12"/>
<polygon fill="black" stroke="black" points="1382.23,-35.55 1391.62,-30.64 1381.22,-28.62 1382.23,-35.55"/>
</g>
<!-- n123279605284064 -->
<g id="node10" class="node">
<title>n123279605284064</title>
<ellipse fill="none" stroke="black" cx="1693.64" cy="-18" rx="104.78" ry="18"/>
<text text-anchor="middle" x="1693.64" y="-14.3" font-family="Times,serif" font-size="14.00">n123279605284064</text>
</g>
<!-- n123279605284688&#45;&gt;n123279605284064 -->
<g id="edge9" class="edge">
<title>n123279605284688&#45;&gt;n123279605284064</title>
<path fill="none" stroke="black" d="M996.54,-83.61C1129.19,-75.79 1373.26,-59.63 1580.64,-36 1590.25,-34.91 1600.3,-33.61 1610.27,-32.23"/>
<polygon fill="black" stroke="black" points="1610.78,-35.7 1620.19,-30.83 1609.8,-28.76 1610.78,-35.7"/>
</g>
</g>
</svg>
